<svg width="109" height="29" viewBox="0 0 109 29" fill="none" xmlns="http://www.w3.org/2000/svg">
<path d="M11.16 22.4699C9.60001 22.4699 8.14001 22.1999 6.78001 21.6599C5.42001 21.0999 4.23001 20.3299 3.21001 19.3499C2.21001 18.3699 1.42001 17.2299 0.840014 15.9299C0.280014 14.6099 1.3493e-05 13.1899 1.3493e-05 11.6699C1.3493e-05 10.1299 0.280014 8.70992 0.840014 7.40992C1.42001 6.08992 2.22001 4.93992 3.24001 3.95992C4.26001 2.97992 5.44001 2.21992 6.78001 1.67992C8.14001 1.11992 9.60001 0.839921 11.16 0.839921C12.32 0.839921 13.44 0.999921 14.52 1.31992C15.6 1.63992 16.6 2.08992 17.52 2.66992C18.46 3.24992 19.26 3.94992 19.92 4.76992L16.98 7.67992C16.22 6.73992 15.34 6.02992 14.34 5.54992C13.36 5.06992 12.3 4.82992 11.16 4.82992C10.22 4.82992 9.34001 5.00992 8.52001 5.36992C7.70001 5.70992 6.99001 6.18992 6.39001 6.80992C5.79001 7.40992 5.32001 8.12992 4.98001 8.96992C4.64001 9.78992 4.47001 10.6899 4.47001 11.6699C4.47001 12.6299 4.64001 13.5299 4.98001 14.3699C5.32001 15.1899 5.80001 15.9099 6.42001 16.5299C7.04001 17.1299 7.76001 17.5999 8.58001 17.9399C9.42001 18.2799 10.33 18.4499 11.31 18.4499C12.41 18.4499 13.44 18.2199 14.4 17.7599C15.36 17.2999 16.21 16.6399 16.95 15.7799L19.8 18.5999C19.14 19.3999 18.35 20.0899 17.43 20.6699C16.51 21.2499 15.51 21.6999 14.43 22.0199C13.37 22.3199 12.28 22.4699 11.16 22.4699ZM29.2538 22.4699C27.6938 22.4699 26.2838 22.1099 25.0238 21.3899C23.7638 20.6699 22.7638 19.6999 22.0238 18.4799C21.2838 17.2599 20.9138 15.8899 20.9138 14.3699C20.9138 12.8499 21.2738 11.4799 21.9938 10.2599C22.7338 9.01992 23.7338 8.03992 24.9938 7.31992C26.2738 6.59992 27.6938 6.23992 29.2538 6.23992C30.8138 6.23992 32.2238 6.59992 33.4838 7.31992C34.7638 8.03992 35.7638 9.01992 36.4838 10.2599C37.2238 11.4799 37.5938 12.8499 37.5938 14.3699C37.5938 15.8899 37.2238 17.2599 36.4838 18.4799C35.7638 19.6999 34.7738 20.6699 33.5138 21.3899C32.2538 22.1099 30.8338 22.4699 29.2538 22.4699ZM29.2538 18.8999C30.0738 18.8999 30.8038 18.6999 31.4438 18.2999C32.1038 17.8999 32.6238 17.3599 33.0038 16.6799C33.4038 15.9799 33.6038 15.2099 33.6038 14.3699C33.6038 13.5099 33.4038 12.7399 33.0038 12.0599C32.6238 11.3799 32.1038 10.8399 31.4438 10.4399C30.8038 10.0199 30.0738 9.80992 29.2538 9.80992C28.4538 9.80992 27.7238 10.0199 27.0638 10.4399C26.4038 10.8399 25.8838 11.3799 25.5038 12.0599C25.1238 12.7399 24.9338 13.5099 24.9338 14.3699C24.9338 15.2099 25.1238 15.9799 25.5038 16.6799C25.8838 17.3599 26.4038 17.8999 27.0638 18.2999C27.7238 18.6999 28.4538 18.8999 29.2538 18.8999ZM47.7401 22.4699C46.1801 22.4699 44.7701 22.1099 43.5101 21.3899C42.2501 20.6699 41.2501 19.6999 40.5101 18.4799C39.7701 17.2599 39.4001 15.8899 39.4001 14.3699C39.4001 12.8499 39.7601 11.4799 40.4801 10.2599C41.2201 9.01992 42.2201 8.03992 43.4801 7.31992C44.7601 6.59992 46.1801 6.23992 47.7401 6.23992C49.3001 6.23992 50.7101 6.59992 51.9701 7.31992C53.2501 8.03992 54.2501 9.01992 54.9701 10.2599C55.7101 11.4799 56.0801 12.8499 56.0801 14.3699C56.0801 15.8899 55.7101 17.2599 54.9701 18.4799C54.2501 19.6999 53.2601 20.6699 52.0001 21.3899C50.7401 22.1099 49.3201 22.4699 47.7401 22.4699ZM47.7401 18.8999C48.5601 18.8999 49.2901 18.6999 49.9301 18.2999C50.5901 17.8999 51.1101 17.3599 51.4901 16.6799C51.8901 15.9799 52.0901 15.2099 52.0901 14.3699C52.0901 13.5099 51.8901 12.7399 51.4901 12.0599C51.1101 11.3799 50.5901 10.8399 49.9301 10.4399C49.2901 10.0199 48.5601 9.80992 47.7401 9.80992C46.9401 9.80992 46.2101 10.0199 45.5501 10.4399C44.8901 10.8399 44.3701 11.3799 43.9901 12.0599C43.6101 12.7399 43.4201 13.5099 43.4201 14.3699C43.4201 15.2099 43.6101 15.9799 43.9901 16.6799C44.3701 17.3599 44.8901 17.8999 45.5501 18.2999C46.2101 18.6999 46.9401 18.8999 47.7401 18.8999ZM58.6064 22.1699V1.16992L62.7164 0.47992V22.1699H58.6064ZM67.9706 4.67992C67.3306 4.67992 66.7806 4.44992 66.3206 3.98992C65.8606 3.52992 65.6306 2.97992 65.6306 2.33992C65.6306 1.67992 65.8606 1.12992 66.3206 0.689921C66.7806 0.229921 67.3306 -7.87973e-05 67.9706 -7.87973e-05C68.6306 -7.87973e-05 69.1806 0.229921 69.6206 0.689921C70.0806 1.12992 70.3106 1.67992 70.3106 2.33992C70.3106 2.97992 70.0806 3.52992 69.6206 3.98992C69.1806 4.44992 68.6306 4.67992 67.9706 4.67992ZM64.9706 28.5899C64.5906 28.5899 64.2006 28.5599 63.8006 28.4999C63.4006 28.4599 63.0806 28.3999 62.8406 28.3199V25.1699C63.2006 25.2499 63.6406 25.2899 64.1606 25.2899C64.7606 25.2899 65.2006 25.1599 65.4806 24.8999C65.7806 24.6599 65.9306 24.2599 65.9306 23.6999V6.53992H70.0406V23.9399C70.0406 25.4199 69.6006 26.5599 68.7206 27.3599C67.8406 28.1799 66.5906 28.5899 64.9706 28.5899ZM80.8749 22.4699C79.3149 22.4699 77.9049 22.1099 76.6449 21.3899C75.3849 20.6699 74.3849 19.6999 73.6449 18.4799C72.9049 17.2599 72.5349 15.8899 72.5349 14.3699C72.5349 12.8499 72.8949 11.4799 73.6149 10.2599C74.3549 9.01992 75.3549 8.03992 76.6149 7.31992C77.8949 6.59992 79.3149 6.23992 80.8749 6.23992C82.4349 6.23992 83.8449 6.59992 85.1049 7.31992C86.3849 8.03992 87.3849 9.01992 88.1049 10.2599C88.8449 11.4799 89.2149 12.8499 89.2149 14.3699C89.2149 15.8899 88.8449 17.2599 88.1049 18.4799C87.3849 19.6999 86.3949 20.6699 85.1349 21.3899C83.8749 22.1099 82.4549 22.4699 80.8749 22.4699ZM80.8749 18.8999C81.6949 18.8999 82.4249 18.6999 83.0649 18.2999C83.7249 17.8999 84.2449 17.3599 84.6249 16.6799C85.0249 15.9799 85.2249 15.2099 85.2249 14.3699C85.2249 13.5099 85.0249 12.7399 84.6249 12.0599C84.2449 11.3799 83.7249 10.8399 83.0649 10.4399C82.4249 10.0199 81.6949 9.80992 80.8749 9.80992C80.0749 9.80992 79.3449 10.0199 78.6849 10.4399C78.0249 10.8399 77.5049 11.3799 77.1249 12.0599C76.7449 12.7399 76.5549 13.5099 76.5549 14.3699C76.5549 15.2099 76.7449 15.9799 77.1249 16.6799C77.5049 17.3599 78.0249 17.8999 78.6849 18.2999C79.3449 18.6999 80.0749 18.8999 80.8749 18.8999ZM91.7412 22.1699V1.16992L95.8512 0.47992V7.79992C97.0912 6.81992 98.5512 6.32992 100.231 6.32992C101.711 6.32992 103.051 6.68992 104.251 7.40992C105.451 8.12992 106.401 9.09992 107.101 10.3199C107.821 11.5199 108.181 12.8699 108.181 14.3699C108.181 15.8699 107.821 17.2299 107.101 18.4499C106.381 19.6499 105.411 20.6099 104.191 21.3299C102.971 22.0299 101.611 22.3799 100.111 22.3799C99.3312 22.3799 98.5712 22.2699 97.8312 22.0499C97.0912 21.8299 96.4112 21.5099 95.7912 21.0899V22.1699H91.7412ZM99.5712 18.8999C100.431 18.8999 101.201 18.6999 101.881 18.2999C102.581 17.8999 103.131 17.3599 103.531 16.6799C103.931 15.9999 104.131 15.2299 104.131 14.3699C104.131 13.5099 103.931 12.7399 103.531 12.0599C103.131 11.3599 102.581 10.8199 101.881 10.4399C101.201 10.0399 100.431 9.83992 99.5712 9.83992C98.8112 9.83992 98.1112 9.96992 97.4712 10.2299C96.8512 10.4699 96.3112 10.8399 95.8512 11.3399V17.4299C96.2912 17.8899 96.8312 18.2499 97.4712 18.5099C98.1312 18.7699 98.8312 18.8999 99.5712 18.8999Z" fill="#A0A0A0"/>
</svg>
